<?xml version="1.0" standalone="no"?>
<!DOCTYPE svg PUBLIC "-//W3C//DTD SVG 20010904//EN"
 "http://www.w3.org/TR/2001/REC-SVG-20010904/DTD/svg10.dtd">
<svg version="1.0" xmlns="http://www.w3.org/2000/svg"
 width="585.000000pt" height="1024.000000pt" viewBox="0 0 585.000000 1024.000000"
 preserveAspectRatio="xMidYMid meet">

<g transform="translate(0.000000,1024.000000) scale(0.100000,-0.100000)"
fill="#000000" stroke="none">
<path d="M2275 9464 c-177 -11 -437 -36 -560 -54 -189 -28 -587 -108 -825
-167 l-195 -49 -3 -827 -2 -827 213 0 214 0 114 536 114 535 130 64 c211 103
460 180 710 221 134 21 566 30 717 15 425 -43 691 -150 885 -355 248 -261 356
-634 370 -1276 23 -1034 -218 -1646 -740 -1885 -132 -60 -226 -84 -730 -186
-276 -56 -506 -105 -510 -109 -7 -6 145 -2051 159 -2137 l5 -33 255 0 c195 0
256 3 259 13 2 6 22 385 44 842 23 456 45 832 49 836 4 3 124 32 267 64 538
120 810 224 1112 424 568 378 885 904 993 1649 39 272 44 655 10 904 -90 666
-427 1166 -982 1458 -326 172 -710 276 -1198 325 -147 15 -734 28 -875 19z"/>
<path d="M2511 2029 c-173 -34 -347 -136 -457 -269 -59 -72 -129 -215 -154
-314 -24 -95 -27 -259 -5 -358 60 -284 281 -516 566 -594 81 -23 299 -25 378
-5 372 95 618 430 598 812 -10 200 -88 372 -231 514 -115 113 -234 179 -384
210 -73 16 -241 18 -311 4z"/>
</g>
</svg>
